<mxfile host="app.diagrams.net" modified="2024-06-07T04:06:23.756Z" agent="Mozilla/5.0 (Windows NT 10.0; Win64; x64) AppleWebKit/537.36 (KHTML, like Gecko) Chrome/101.0.0.0 Safari/537.36" version="24.5.1" etag="T_lU5c3Vo9w-SU1WBRVx" type="github">
  <diagram name="Trang-1" id="mxdWTtmPd_q35_Jz-65F">
    <mxGraphModel>
      <root>
        <mxCell id="0" />
        <mxCell id="1" parent="0" />
      </root>
    </mxGraphModel>
  </diagram>
</mxfile>
